<mxfile host="app.diagrams.net" modified="2024-02-19T16:42:27.262Z" agent="Mozilla/5.0 (Windows NT 10.0; Win64; x64) AppleWebKit/537.36 (KHTML, like Gecko) Chrome/109.0.0.0 Safari/537.36" version="23.1.5" etag="ekACJm5qwUFaGwfGV3IF" type="github">
  <diagram name="Page-1" id="oaBxO6wFIZVBwloFJ6gv">
    <mxGraphModel>
      <root>
        <mxCell id="0" />
        <mxCell id="1" parent="0" />
      </root>
    </mxGraphModel>
  </diagram>
</mxfile>
